<svg xmlns="http://www.w3.org/2000/svg" x="0px" y="0px"
width="85" height="85"
viewBox="0 0 172 172"
style=" fill:#000000;"><g fill="none" fill-rule="nonzero" stroke="none" stroke-width="1" stroke-linecap="butt" stroke-linejoin="miter" stroke-miterlimit="10" stroke-dasharray="" stroke-dashoffset="0" font-family="none" font-weight="none" font-size="none" text-anchor="none" style="mix-blend-mode: normal"><path d="M0,172v-172h172v172z" fill="none"></path><g><path d="M150.0098,97.5412c1.9522,-3.7066 3.0702,-7.9206 3.0702,-12.4012c0,-11.38812 -7.15348,-21.08204 -17.20172,-24.90216c0,-0.01204 0.00172,-0.02408 0.00172,-0.03784c0,-19.94856 -16.17144,-36.12 -36.12,-36.12c-16.82848,0 -30.92732,11.52572 -34.93836,27.10204c-2.53872,-0.8342 -5.24428,-1.30204 -8.06164,-1.30204c-13.23024,0 -24.11956,9.96396 -25.6108,22.79344c-8.95088,1.89372 -15.6692,9.83324 -15.6692,19.34656c0,10.92372 8.85628,19.78 19.78,19.78c0.30444,0 0.60544,-0.02064 0.90472,-0.03784c-0.00688,0.301 -0.04472,0.59512 -0.04472,0.89784c0,19.47384 15.78616,35.26 35.26,35.26c11.07164,0 20.941,-5.11184 27.40648,-13.09608c3.74616,3.827 8.95432,6.21608 14.73352,6.21608c7.998,0 14.91928,-4.558 18.34552,-11.21096c1.80944,0.5762 3.73412,0.89096 5.73448,0.89096c10.449,0 18.92,-8.471 18.92,-18.92c0,-5.69492 -2.5284,-10.78956 -6.5102,-14.2588z" fill="#c7ede6"></path><path d="M137.385,104.06c0,0 6.2608,0 10.535,0c4.2742,0 7.74,-3.4658 7.74,-7.74c0,-4.01276 -3.06504,-7.27388 -6.9746,-7.6626c0.03784,-0.31132 0.0946,-0.61576 0.0946,-0.9374c0,-4.2742 -3.4658,-7.74 -7.74,-7.74c-2.47336,0 -4.64916,1.17992 -6.06644,2.98592c-0.2408,-4.53392 -3.95944,-8.14592 -8.55356,-8.14592c-4.74892,0 -8.6,3.85108 -8.6,8.6c0,0.76712 0.13244,1.4964 0.32164,2.20504c-1.10424,-1.33644 -2.75372,-2.20504 -4.62164,-2.20504c-3.06332,0 -5.56248,2.2962 -5.9426,5.2546c-0.31132,-0.03784 -0.61576,-0.0946 -0.9374,-0.0946c-4.2742,0 -7.74,3.4658 -7.74,7.74c0,4.2742 3.4658,7.74 7.74,7.74c4.2742,0 16.34,0 16.34,0h9.245v0.86h5.16z" fill="#fdfcef"></path><path d="M126.42,73.96c-5.21676,0 -9.46,4.24324 -9.46,9.46c0,0.02752 0,0.05332 0,0.08084c-1.03544,-0.6106 -2.2188,-0.94084 -3.44,-0.94084c-3.14932,0 -5.86692,2.16892 -6.63576,5.1686c-0.08084,-0.00516 -0.16168,-0.0086 -0.24424,-0.0086c-4.74204,0 -8.6,3.85796 -8.6,8.6c0,4.74204 3.85796,8.6 8.6,8.6h25.585c0.47472,0 0.86,-0.38528 0.86,-0.86c0,-0.47472 -0.38528,-0.86 -0.86,-0.86h-25.585c-3.79432,0 -6.88,-3.08568 -6.88,-6.88c0,-3.79432 3.08568,-6.88 6.88,-6.88c0.20124,0 0.3956,0.02924 0.58996,0.05504l0.24252,0.03268c0.03612,0.00516 0.07052,0.00688 0.10664,0.00688c0.42312,0 0.79464,-0.3182 0.8514,-0.75164c0.32852,-2.56796 2.51636,-4.50296 5.08948,-4.50296c1.5222,0 2.96356,0.68972 3.95772,1.892c0.16856,0.20296 0.41452,0.31304 0.66392,0.31304c0.13416,0 0.26832,-0.03096 0.39216,-0.09632c0.35948,-0.18404 0.54008,-0.59512 0.43688,-0.98556c-0.1978,-0.7482 -0.29068,-1.37772 -0.29068,-1.98316c0,-4.26732 3.47268,-7.74 7.74,-7.74c4.09532,0 7.47684,3.21984 7.69528,7.33236c0.01892,0.35776 0.258,0.66564 0.60028,0.774c0.086,0.02752 0.17372,0.04128 0.26144,0.04128c0.258,0 0.50912,-0.11868 0.67424,-0.33024c1.32612,-1.68904 3.28864,-2.6574 5.38876,-2.6574c3.79432,0 6.88,3.08568 6.88,6.88c0,0.20124 -0.02924,0.3956 -0.05504,0.58996l-0.03268,0.24252c-0.02752,0.23048 0.03784,0.46096 0.18232,0.64156c0.14448,0.1806 0.35604,0.29584 0.5848,0.3182c3.53632,0.3526 6.2006,3.28004 6.2006,6.80776c0,3.79432 -3.08568,6.88 -6.88,6.88h-10.535c-0.47472,0 -0.86,0.38528 -0.86,0.86c0,0.47472 0.38528,0.86 0.86,0.86h10.535c4.74204,0 8.6,-3.85796 8.6,-8.6c0,-4.12284 -2.90508,-7.59036 -6.88516,-8.38844c0.00344,-0.07052 0.00516,-0.14104 0.00516,-0.21156c0,-4.74204 -3.85796,-8.6 -8.6,-8.6c-2.02272,0 -3.94396,0.71552 -5.47476,2.00208c-1.02856,-4.13488 -4.75064,-7.16208 -9.14524,-7.16208z" fill="#472b29"></path><path d="M123.84,86c-2.41316,0 -4.48748,1.71828 -5.01036,4.02652c-0.63124,-0.38184 -1.35192,-0.58652 -2.08464,-0.58652c-2.06744,0 -3.78056,1.54284 -4.04716,3.55696c-0.34916,-0.07912 -0.68112,-0.11696 -1.00448,-0.11696c-2.62988,0 -4.83492,2.064 -5.01896,4.69904c-0.0172,0.23736 0.16168,0.44376 0.39732,0.46096c0.01032,0 0.02064,0 0.03096,0c0.2236,0 0.4128,-0.17372 0.42828,-0.39904c0.15308,-2.18612 1.97972,-3.90096 4.16068,-3.90096c0.39388,0 0.8084,0.07224 1.26936,0.21844c0.03784,0.01204 0.0774,0.0172 0.11524,0.0172c0.0946,0 0.1892,-0.0344 0.26832,-0.09288c0.11008,-0.07912 0.17544,-0.22016 0.17544,-0.35776c0,-1.77848 1.44652,-3.225 3.225,-3.225c0.76884,0 1.5222,0.28896 2.11732,0.81356c0.08084,0.07052 0.18232,0.10836 0.2838,0.10836c0.05504,0 0.10836,-0.01032 0.15996,-0.03268c0.15136,-0.0602 0.25456,-0.20124 0.2666,-0.36464c0.17888,-2.22396 2.05196,-3.9646 4.26732,-3.9646c0.35776,0 0.731,0.05848 1.17304,0.18404c0.03956,0.01204 0.08084,0.0172 0.1204,0.0172c0.18748,0 0.35604,-0.12556 0.41108,-0.31304c0.06536,-0.22876 -0.06708,-0.46612 -0.29584,-0.53148c-0.51944,-0.14792 -0.96836,-0.21672 -1.40868,-0.21672zM147.71876,88.58c-2.28072,0 -4.31376,1.54284 -4.94328,3.75304c-0.06536,0.22876 0.06708,0.46612 0.29584,0.53148c0.04128,0.01032 0.08084,0.01548 0.11868,0.01548c0.18748,0 0.35948,-0.12384 0.4128,-0.31304c0.5246,-1.8404 2.21708,-3.12696 4.11596,-3.12696c0.20124,0 0.3956,0.02408 0.58824,0.04988c0.02064,0.00344 0.03956,0.00516 0.0602,0.00516c0.20812,0 0.39388,-0.15824 0.42312,-0.37324c0.03268,-0.23564 -0.13244,-0.45236 -0.36808,-0.48332c-0.23048,-0.03096 -0.4644,-0.05848 -0.70348,-0.05848z" fill="#472b29"></path><path d="M26.4966,87.72h-17.0366c-0.47472,0 -0.86,-0.38528 -0.86,-0.86c0,-0.47472 0.38528,-0.86 0.86,-0.86h17.0366c0.47472,0 0.86,0.38528 0.86,0.86c0,0.47472 -0.38356,0.86 -0.86,0.86zM31.82,87.72h-1.72c-0.47472,0 -0.86,-0.38528 -0.86,-0.86c0,-0.47472 0.38528,-0.86 0.86,-0.86h1.72c0.47472,0 0.86,0.38528 0.86,0.86c0,0.47472 -0.38356,0.86 -0.86,0.86zM40.40452,91.16h-15.46452c-0.47472,0 -0.86,-0.38528 -0.86,-0.86c0,-0.47472 0.38528,-0.86 0.86,-0.86h15.46452c0.47472,0 0.86,0.38528 0.86,0.86c0,0.47472 -0.38528,0.86 -0.86,0.86zM21.5,91.16h-1.72c-0.47472,0 -0.86,-0.38528 -0.86,-0.86c0,-0.47472 0.38528,-0.86 0.86,-0.86h1.72c0.47472,0 0.86,0.38528 0.86,0.86c0,0.47472 -0.38356,0.86 -0.86,0.86zM16.34,91.16h-3.44c-0.47472,0 -0.86,-0.38528 -0.86,-0.86c0,-0.47472 0.38528,-0.86 0.86,-0.86h3.44c0.47472,0 0.86,0.38528 0.86,0.86c0,0.47472 -0.38356,0.86 -0.86,0.86zM26.66,94.6h-3.44c-0.47472,0 -0.86,-0.38528 -0.86,-0.86c0,-0.47472 0.38528,-0.86 0.86,-0.86h3.44c0.47472,0 0.86,0.38528 0.86,0.86c0,0.47472 -0.38528,0.86 -0.86,0.86zM31.82,79.12c-0.30444,0 -1.41556,0 -1.72,0c-0.47472,0 -0.86,0.38528 -0.86,0.86c0,0.47472 0.38528,0.86 0.86,0.86c0.30444,0 1.41556,0 1.72,0c0.47472,0 0.86,-0.38528 0.86,-0.86c0,-0.47472 -0.38528,-0.86 -0.86,-0.86zM31.82,82.56c-0.30444,0 -8.29556,0 -8.6,0c-0.47472,0 -0.86,0.38528 -0.86,0.86c0,0.47472 0.38528,0.86 0.86,0.86c0.30444,0 8.29556,0 8.6,0c0.47472,0 0.86,-0.38528 0.86,-0.86c0,-0.47472 -0.38528,-0.86 -0.86,-0.86zM40.42,86c-0.30444,0 -4.85556,0 -5.16,0c-0.47472,0 -0.86,0.38528 -0.86,0.86c0,0.47472 0.38528,0.86 0.86,0.86c0.30444,0 4.85556,0 5.16,0c0.47472,0 0.86,-0.38528 0.86,-0.86c0,-0.47472 -0.38528,-0.86 -0.86,-0.86z" fill="#ffffff"></path><g fill="#ffffff"><path d="M124.7,41.28h-17.2c-0.47472,0 -0.86,-0.38528 -0.86,-0.86c0,-0.47472 0.38528,-0.86 0.86,-0.86h17.2c0.47472,0 0.86,0.38528 0.86,0.86c0,0.47472 -0.38528,0.86 -0.86,0.86zM131.58,41.28h-3.44c-0.47472,0 -0.86,-0.38528 -0.86,-0.86c0,-0.47472 0.38528,-0.86 0.86,-0.86h3.44c0.47472,0 0.86,0.38528 0.86,0.86c0,0.47472 -0.38528,0.86 -0.86,0.86zM140.18,44.72h-17.2c-0.47472,0 -0.86,-0.38528 -0.86,-0.86c0,-0.47472 0.38528,-0.86 0.86,-0.86h17.2c0.47472,0 0.86,0.38528 0.86,0.86c0,0.47472 -0.38356,0.86 -0.86,0.86zM119.54,44.72h-1.72c-0.47472,0 -0.86,-0.38528 -0.86,-0.86c0,-0.47472 0.38528,-0.86 0.86,-0.86h1.72c0.47472,0 0.86,0.38528 0.86,0.86c0,0.47472 -0.38528,0.86 -0.86,0.86zM114.165,44.72h-3.225c-0.47472,0 -0.86,-0.38528 -0.86,-0.86c0,-0.47472 0.38528,-0.86 0.86,-0.86h3.225c0.47472,0 0.86,0.38528 0.86,0.86c0,0.47472 -0.38528,0.86 -0.86,0.86zM129.86,37.84h-8.6c-0.47472,0 -0.86,-0.38528 -0.86,-0.86c0,-0.47472 0.38528,-0.86 0.86,-0.86h8.6c0.47472,0 0.86,0.38528 0.86,0.86c0,0.47472 -0.38356,0.86 -0.86,0.86zM124.7,48.16h-3.44c-0.47472,0 -0.86,-0.38528 -0.86,-0.86c0,-0.47472 0.38528,-0.86 0.86,-0.86h3.44c0.47472,0 0.86,0.38528 0.86,0.86c0,0.47472 -0.38528,0.86 -0.86,0.86z"></path></g><g><path d="M63.64,122.636c-6.923,0 -12.556,-5.63128 -12.556,-12.556v-48.16c0,-6.923 5.63128,-12.556 12.556,-12.556h48.16c6.923,0 12.556,5.63128 12.556,12.556v48.16c0,6.923 -5.63128,12.556 -12.556,12.556z" fill="#ffd583"></path><path d="M111.8,50.568c6.25908,0 11.352,5.09292 11.352,11.352v48.16c0,6.25908 -5.09292,11.352 -11.352,11.352h-48.16c-6.25908,0 -11.352,-5.09292 -11.352,-11.352v-48.16c0,-6.25908 5.09292,-11.352 11.352,-11.352h48.16M111.8,48.16h-48.16c-7.59896,0 -13.76,6.16104 -13.76,13.76v48.16c0,7.59896 6.16104,13.76 13.76,13.76h48.16c7.59896,0 13.76,-6.16104 13.76,-13.76v-48.16c0,-7.59896 -6.16104,-13.76 -13.76,-13.76z" fill="#472b29"></path></g><g fill="#472b29"><path d="M117.72712,81.71892c-0.47472,0 -0.86,-0.38528 -0.86,-0.86v-6.37432c0,-0.47472 0.38528,-0.86 0.86,-0.86c0.47472,0 0.86,0.38528 0.86,0.86v6.37432c0,0.47472 -0.38528,0.86 -0.86,0.86z"></path></g><g fill="#472b29"><path d="M117.83376,70.6232c-0.47472,0 -0.86,-0.38528 -0.86,-0.86v-3.29036c0,-0.47472 0.38528,-0.86 0.86,-0.86c0.47472,0 0.86,0.38528 0.86,0.86v3.29036c0,0.47472 -0.38356,0.86 -0.86,0.86z"></path></g><g fill="#472b29"><path d="M110.51172,116.85336h-45.47508c-4.50468,0 -8.16828,-3.66532 -8.16828,-8.16828v-45.4768c0,-4.50296 3.6636,-8.16828 8.16828,-8.16828h41.2112c0.47472,0 0.86,0.38528 0.86,0.86c0,0.47472 -0.38528,0.86 -0.86,0.86h-41.2112c-3.55524,0 -6.44828,2.89304 -6.44828,6.44828v45.47508c0,3.55524 2.89304,6.44828 6.44828,6.44828h45.47508c3.55524,0 6.44828,-2.89304 6.44828,-6.44828v-23.34728c0,-0.47472 0.38528,-0.86 0.86,-0.86c0.47472,0 0.86,0.38528 0.86,0.86v23.34728c0,4.50468 -3.6636,8.17 -8.16828,8.17z"></path></g><g><path d="M62.78,126.42c0,0 2.69524,0 6.02,0c3.32476,0 6.02,-2.69524 6.02,-6.02c0,-3.06332 -2.2962,-5.56248 -5.2546,-5.9426c0.04816,-0.30788 0.0946,-0.61576 0.0946,-0.9374c0,-3.32476 -2.69524,-6.02 -6.02,-6.02c-1.77504,0 -3.354,0.7826 -4.4548,2.0038c-0.66048,-3.10976 -3.41764,-5.4438 -6.7252,-5.4438c-3.79948,0 -6.88,3.08052 -6.88,6.88c0,0.32852 0.0516,0.64328 0.09632,0.95976c-0.73616,-0.59168 -1.65808,-0.95976 -2.67632,-0.95976c-2.11216,0 -3.8614,1.52564 -4.2226,3.5346c-0.30788,-0.04816 -0.61576,-0.0946 -0.9374,-0.0946c-3.32476,0 -6.02,2.69524 -6.02,6.02c0,3.32476 2.69524,6.02 6.02,6.02c3.32476,0 12.9,0 12.9,0v0.86h12.04z" fill="#fdfcef"></path><path d="M65.79,118.68c-0.23736,0 -0.43,-0.19264 -0.43,-0.43c0,-2.10356 1.7114,-3.81496 3.81496,-3.81496c0.05848,0.01548 1.26764,-0.00172 2.13968,0.23392c0.22876,0.06192 0.36464,0.29756 0.30272,0.52632c-0.06192,0.23048 -0.29756,0.36636 -0.52632,0.30272c-0.76368,-0.2064 -1.892,-0.2064 -1.91436,-0.20296c-1.63056,0 -2.95668,1.32612 -2.95668,2.95496c0,0.23736 -0.19264,0.43 -0.43,0.43zM54.18,125.56c-0.47496,0 -0.86,0.38504 -0.86,0.86c0,0.47496 0.38504,0.86 0.86,0.86c0.47496,0 0.86,-0.38504 0.86,-0.86c0,-0.47496 -0.38504,-0.86 -0.86,-0.86z" fill="#472b29"></path><path d="M68.8,127.28h-6.02c-0.47472,0 -0.86,-0.38528 -0.86,-0.86c0,-0.47472 0.38528,-0.86 0.86,-0.86h6.02c2.84488,0 5.16,-2.31512 5.16,-5.16c0,-2.57312 -1.935,-4.76096 -4.50296,-5.08948c-0.23048,-0.03096 -0.4386,-0.15136 -0.57792,-0.33712c-0.13932,-0.18576 -0.1978,-0.41968 -0.16168,-0.64844c0.03956,-0.26488 0.08256,-0.52976 0.08256,-0.80496c0,-2.84488 -2.31512,-5.16 -5.16,-5.16c-1.462,0 -2.81736,0.6106 -3.81668,1.72c-0.215,0.23908 -0.55212,0.34056 -0.86,0.25456c-0.31304,-0.08428 -0.55212,-0.3354 -0.6192,-0.65188c-0.58652,-2.75888 -3.0616,-4.76268 -5.88412,-4.76268c-3.3196,0 -6.02,2.7004 -6.02,6.02c0,0.24596 0.03612,0.4816 0.07052,0.71896c0.04988,0.34916 -0.10836,0.75336 -0.41624,0.9288c-0.30788,0.17544 -0.68112,0.20296 -0.95632,-0.0172c-0.6278,-0.50396 -1.36568,-0.77056 -2.13796,-0.77056c-1.66152,0 -3.08224,1.18852 -3.37636,2.82768c-0.08256,0.45924 -0.50912,0.76712 -0.97868,0.6966c-0.26488,-0.04128 -0.52976,-0.08428 -0.80496,-0.08428c-2.84488,0 -5.16,2.31512 -5.16,5.16c0,2.84488 2.31512,5.16 5.16,5.16h12.9c0.47472,0 0.86,0.38528 0.86,0.86c0,0.47472 -0.38528,0.86 -0.86,0.86h-12.9c-3.79432,0 -6.88,-3.08568 -6.88,-6.88c0,-3.79432 3.08568,-6.88 6.88,-6.88c0.10148,0 0.19952,0.00344 0.29928,0.01032c0.71208,-2.03992 2.64364,-3.45032 4.86072,-3.45032c0.60028,0 1.18508,0.10492 1.73892,0.3096c0.2838,-4.01276 3.6378,-7.1896 7.72108,-7.1896c3.14932,0 5.96152,1.93844 7.14316,4.77128c1.1696,-0.85656 2.58344,-1.33128 4.03684,-1.33128c3.79432,0 6.88,3.08568 6.88,6.88c0,0.08256 -0.00172,0.1634 -0.00688,0.24424c2.99796,0.77056 5.16688,3.48644 5.16688,6.63576c0,3.79432 -3.08568,6.88 -6.88,6.88z" fill="#472b29"></path><path d="M59.34,125.56c-0.27348,0 -1.44652,0 -1.72,0c-0.47472,0 -0.86,0.38528 -0.86,0.86c0,0.47472 0.38528,0.86 0.86,0.86c0.27348,0 1.44652,0 1.72,0c0.47472,0 0.86,-0.38528 0.86,-0.86c0,-0.47472 -0.38528,-0.86 -0.86,-0.86z" fill="#472b29"></path></g><g><path d="M103.02112,83.26692h-12.56804v-13.66196c0,-1.51016 -1.22292,-2.73308 -2.73308,-2.73308c-1.51016,0 -2.73308,1.22292 -2.73308,2.73308v13.66196h-12.56804c-1.51016,0 -2.73308,1.22292 -2.73308,2.73308c0,1.51016 1.22292,2.73308 2.73308,2.73308h12.56804v13.66196c0,1.51016 1.22292,2.73308 2.73308,2.73308c1.51016,0 2.73308,-1.22292 2.73308,-2.73308v-13.66196h12.56804c1.51016,0 2.73308,-1.22292 2.73308,-2.73308c0,-1.51016 -1.22464,-2.73308 -2.73308,-2.73308z" fill="#fdfcee"></path><path d="M87.72,105.9864c-1.97972,0 -3.59136,-1.61336 -3.59136,-3.59308v-12.80024h-11.70976c-1.97972,0 -3.59136,-1.61336 -3.59136,-3.59308c0,-1.97972 1.61164,-3.59308 3.59136,-3.59308h11.70976v-12.80024c0,-1.97972 1.61164,-3.59308 3.59136,-3.59308c1.97972,0 3.59136,1.61336 3.59136,3.59308v12.80024h11.70976c1.97972,0 3.59136,1.61336 3.59136,3.59308c0,1.97972 -1.61164,3.59308 -3.59136,3.59308h-11.70976v12.80024c0,1.98144 -1.61164,3.59308 -3.59136,3.59308zM72.41888,84.12692c-1.032,0 -1.87136,0.83936 -1.87136,1.87308c0,1.03372 0.83936,1.87308 1.87136,1.87308h13.42976v14.52024c0,1.03372 0.83936,1.87308 1.87136,1.87308c1.032,0 1.87136,-0.83936 1.87136,-1.87308v-14.52024h13.42976c1.032,0 1.87136,-0.83936 1.87136,-1.87308c0,-1.03372 -0.83936,-1.87308 -1.87136,-1.87308h-13.42976v-14.52024c0,-1.03372 -0.83936,-1.87308 -1.87136,-1.87308c-1.032,0 -1.87136,0.83936 -1.87136,1.87308v14.52024z" fill="#472b29"></path></g></g></g></svg>