<svg xmlns="http://www.w3.org/2000/svg" x="0px" y="0px"
width="24" height="24"
viewBox="0 0 172 172"
style=" fill:#000000;"><g fill="none" fill-rule="nonzero" stroke="none" stroke-width="1" stroke-linecap="butt" stroke-linejoin="miter" stroke-miterlimit="10" stroke-dasharray="" stroke-dashoffset="0" font-family="none" font-weight="none" font-size="none" text-anchor="none" style="mix-blend-mode: normal"><path d="M0,172v-172h172v172z" fill="none"></path><g fill="#f1c40f"><path d="M44.79167,14.33333c-8.89025,0 -16.125,7.23475 -16.125,16.125v111.08333c0,8.89025 7.23475,16.125 16.125,16.125h47.05924c-3.06016,-3.18558 -5.67314,-6.79758 -7.73356,-10.75h-39.32568c-2.96342,0 -5.375,-2.41158 -5.375,-5.375v-1.79167h41.69124c-1.462,-4.51858 -2.27458,-9.32742 -2.27458,-14.33333c0,-25.72833 20.855,-46.58333 46.58333,-46.58333c6.34967,0 12.39833,1.27925 17.91667,3.58333v-51.95833c0,-8.89025 -7.23475,-16.125 -16.125,-16.125zM62.70833,46.58333h46.58333c2.967,0 5.375,2.408 5.375,5.375c0,2.967 -2.408,5.375 -5.375,5.375h-46.58333c-2.967,0 -5.375,-2.408 -5.375,-5.375c0,-2.967 2.408,-5.375 5.375,-5.375zM125.41667,86c-21.76875,0 -39.41667,17.64792 -39.41667,39.41667c0,21.76875 17.64792,39.41667 39.41667,39.41667c21.76875,0 39.41667,-17.64792 39.41667,-39.41667c0,-21.76875 -17.64792,-39.41667 -39.41667,-39.41667zM125.41667,96.75c1.978,0 3.58333,1.60533 3.58333,3.58333v21.5h21.5c1.978,0 3.58333,1.60533 3.58333,3.58333c0,1.978 -1.60533,3.58333 -3.58333,3.58333h-21.5v21.5c0,1.978 -1.60533,3.58333 -3.58333,3.58333c-1.978,0 -3.58333,-1.60533 -3.58333,-3.58333v-21.5h-21.5c-1.978,0 -3.58333,-1.60533 -3.58333,-3.58333c0,-1.978 1.60533,-3.58333 3.58333,-3.58333h21.5v-21.5c0,-1.978 1.60533,-3.58333 3.58333,-3.58333z"></path></g></g></svg>