<svg xmlns="http://www.w3.org/2000/svg" x="0px" y="0px"
width="60" height="60"
viewBox="0 0 172 172"
style=" fill:#000000;"><g fill="none" fill-rule="nonzero" stroke="none" stroke-width="1" stroke-linecap="butt" stroke-linejoin="miter" stroke-miterlimit="10" stroke-dasharray="" stroke-dashoffset="0" font-family="none" font-weight="none" font-size="none" text-anchor="none" style="mix-blend-mode: normal"><path d="M0,172v-172h172v172z" fill="none"></path><g fill="#07a889"><path d="M44.79167,14.33333c-8.89025,0 -16.125,7.23475 -16.125,16.125v111.08333c0,8.89025 7.23475,16.125 16.125,16.125h47.05924c-3.06375,-3.18558 -5.66956,-6.79758 -7.73356,-10.75h-39.32568c-2.96342,0 -5.375,-2.41158 -5.375,-5.375v-1.79167h41.69124c-1.10725,-3.42567 -1.80953,-7.02692 -2.09261,-10.75h-39.59863v-98.54167c0,-2.96342 2.41158,-5.375 5.375,-5.375h82.41667c2.96342,0 5.375,2.41158 5.375,5.375v48.98389c3.74458,0.5805 7.35658,1.55203 10.75,2.96745v-51.95134c0,-8.89025 -7.23475,-16.125 -16.125,-16.125zM62.70833,50.16667c-1.93842,-0.02741 -3.74144,0.99102 -4.71865,2.66532c-0.97721,1.6743 -0.97721,3.74507 0,5.41937c0.97721,1.6743 2.78023,2.69273 4.71865,2.66532h46.58333c1.93842,0.02741 3.74144,-0.99102 4.71865,-2.66532c0.97721,-1.6743 0.97721,-3.74507 0,-5.41937c-0.97721,-1.6743 -2.78023,-2.69273 -4.71865,-2.66532zM125.41667,86c-21.76875,0 -39.41667,17.64792 -39.41667,39.41667c0,21.76875 17.64792,39.41667 39.41667,39.41667c21.76875,0 39.41667,-17.64792 39.41667,-39.41667c0,-21.76875 -17.64792,-39.41667 -39.41667,-39.41667zM125.41667,96.75c1.978,0 3.58333,1.60533 3.58333,3.58333v21.5h21.5c1.978,0 3.58333,1.60533 3.58333,3.58333c0,1.978 -1.60533,3.58333 -3.58333,3.58333h-21.5v21.5c0,1.978 -1.60533,3.58333 -3.58333,3.58333c-1.978,0 -3.58333,-1.60533 -3.58333,-3.58333v-21.5h-21.5c-1.978,0 -3.58333,-1.60533 -3.58333,-3.58333c0,-1.978 1.60533,-3.58333 3.58333,-3.58333h21.5v-21.5c0,-1.978 1.60533,-3.58333 3.58333,-3.58333z"></path></g></g></svg>