<svg xmlns="http://www.w3.org/2000/svg" x="0px" y="0px"
width="24" height="24"
viewBox="0 0 172 172"
style=" fill:#000000;"><g fill="none" fill-rule="nonzero" stroke="none" stroke-width="1" stroke-linecap="butt" stroke-linejoin="miter" stroke-miterlimit="10" stroke-dasharray="" stroke-dashoffset="0" font-family="none" font-weight="none" font-size="none" text-anchor="none" style="mix-blend-mode: normal"><path d="M0,172v-172h172v172z" fill="none"></path><g fill="#f1c40f"><path d="M86,11.47786c-24.3208,0 -34.4,15.6004 -34.4,34.4c0,6.3296 3.02344,12.68724 3.02344,12.68724c-1.21547,0.69947 -3.21443,2.91979 -2.7099,6.86432c0.94027,7.35587 4.12925,9.22906 6.15885,9.38386c0.774,6.8628 8.14761,15.64152 10.72761,16.92005v11.46667c-5.73333,17.2 -51.6,5.73333 -51.6,45.86667h66.06771c-1.90921,-5.38933 -3.00104,-11.15707 -3.00104,-17.2c0,-20.29027 11.73945,-37.79127 28.76745,-46.225c2.34493,-3.268 4.49216,-7.29092 4.89349,-10.82839c2.0296,-0.1548 5.21858,-2.02799 6.15885,-9.38386c0.50454,-3.95027 -1.49443,-6.16485 -2.70989,-6.86432c0,0 3.02344,-5.74417 3.02344,-12.68724c0,-13.92053 -5.46387,-25.8 -17.2,-25.8c0,0 -4.0764,-8.6 -17.2,-8.6zM131.86667,91.73333c-22.16507,0 -40.13333,17.96827 -40.13333,40.13333c0,22.16507 17.96827,40.13333 40.13333,40.13333c22.16507,0 40.13333,-17.96827 40.13333,-40.13333c0,-22.16507 -17.96827,-40.13333 -40.13333,-40.13333zM131.86667,108.93333c3.1648,0 5.73333,2.5628 5.73333,5.73333v11.46667h11.46667c3.1648,0 5.73333,2.5628 5.73333,5.73333c0,3.17053 -2.56853,5.73333 -5.73333,5.73333h-11.46667v11.46667c0,3.17053 -2.56853,5.73333 -5.73333,5.73333c-3.1648,0 -5.73333,-2.5628 -5.73333,-5.73333v-11.46667h-11.46667c-3.1648,0 -5.73333,-2.5628 -5.73333,-5.73333c0,-3.17053 2.56853,-5.73333 5.73333,-5.73333h11.46667v-11.46667c0,-3.17053 2.56853,-5.73333 5.73333,-5.73333z"></path></g></g></svg>