<svg xmlns="http://www.w3.org/2000/svg" x="0px" y="0px"
width="26" height="26"
viewBox="0 0 172 172"
style=" fill:#000000;"><g fill="none" fill-rule="nonzero" stroke="none" stroke-width="1" stroke-linecap="butt" stroke-linejoin="miter" stroke-miterlimit="10" stroke-dasharray="" stroke-dashoffset="0" font-family="none" font-weight="none" font-size="none" text-anchor="none" style="mix-blend-mode: normal"><path d="M0,172v-172h172v172z" fill="none"></path><g id="original-icon" fill="#cbd4d5" opacity="0" visibility="hidden"><path d="M86,6.90688c-43.65602,0 -79.12,35.46398 -79.12,79.12c0,41.63931 32.27171,75.80172 73.1336,78.87141c0.08056,0.00655 0.16115,0.01386 0.24187,0.02015c1.9,0.13691 3.80998,0.22844 5.74453,0.22844c1.93455,0 3.84453,-0.09153 5.74453,-0.22844c0.08072,-0.0063 0.16131,-0.01361 0.24187,-0.02015c40.86189,-3.06969 73.1336,-37.2321 73.1336,-78.87141c0,-43.65602 -35.46398,-79.12 -79.12,-79.12zM86,13.78688c39.93779,0 72.24,32.3022 72.24,72.24c0,19.71706 -7.89544,37.55193 -20.6736,50.57875c-5.46671,-3.98083 -12.22246,-6.35558 -18.275,-8.47906c-7.16896,-2.5112 -13.95113,-4.89168 -15.82937,-9.03c-0.29584,-3.53288 -0.2694,-6.29176 -0.24188,-9.46l0.00672,-1.34375c3.05472,-2.9068 6.89623,-9.04167 8.21031,-14.70735c2.2704,-1.21088 5.04643,-4.11354 5.87891,-11.06578c0.41624,-3.45032 -0.56572,-6.12245 -1.94172,-7.91469c1.8576,-6.3812 5.55361,-22.53555 -0.92047,-32.96219c-2.73824,-4.40664 -6.87027,-7.18686 -12.30203,-8.28422c-3.05128,-3.77712 -8.80925,-5.83859 -16.50797,-5.83859c-11.69944,0.21672 -20.27622,3.80018 -25.4775,10.64922c-6.13352,8.084 -7.29248,20.29804 -3.45344,36.32156c-1.42072,1.79224 -2.44546,4.50307 -2.02234,8.02219c0.83592,6.95224 3.60179,9.8549 5.87219,11.06578c1.31408,5.67256 5.15215,11.80726 8.21031,14.71406l0.00672,1.31015c0.02752,3.182 0.05396,5.94696 -0.24188,9.4936c-1.88512,4.14864 -8.69992,6.55503 -15.90328,9.09719c-6.0162,2.12442 -12.73196,4.50283 -18.18765,8.43203c-12.78804,-13.02829 -20.68703,-30.87322 -20.68703,-50.59891c0,-39.93779 32.30221,-72.24 72.24,-72.24z"></path></g><g id="subtracted-icon" fill="#cbd4d5"><path d="M165.12,86.02687c0,6.5333 -0.79447,12.88253 -2.29195,18.95647c-1.92235,-1.49225 -3.97872,-2.81905 -6.14721,-3.95851c1.0216,-4.83652 1.55916,-9.85317 1.55916,-14.99796c0,-39.93779 -32.30221,-72.24 -72.24,-72.24c-39.93779,0 -72.24,32.30221 -72.24,72.24c0,19.72569 7.89899,37.57062 20.68703,50.59891c5.4557,-3.92921 12.17146,-6.30761 18.18765,-8.43203c7.20336,-2.54216 14.01816,-4.94855 15.90328,-9.09719c0.29584,-3.54664 0.2694,-6.3116 0.24188,-9.4936l-0.00672,-1.31015c-3.05816,-2.9068 -6.89623,-9.0415 -8.21031,-14.71406c-2.2704,-1.21088 -5.03627,-4.11354 -5.87219,-11.06578c-0.42312,-3.51912 0.60162,-6.22995 2.02234,-8.02219c-3.83904,-16.02352 -2.68008,-28.23756 3.45344,-36.32156c5.20128,-6.84904 13.77806,-10.4325 25.4775,-10.64922c7.69872,0 13.45669,2.06147 16.50797,5.83859c5.43176,1.09736 9.56379,3.87758 12.30203,8.28422c6.47408,10.42664 2.77807,26.58099 0.92047,32.96219c1.376,1.79224 2.35796,4.46437 1.94172,7.91469c-0.83248,6.95224 -3.60851,9.8549 -5.87891,11.06578c-1.31408,5.66568 -5.15559,11.80055 -8.21031,14.70735l-0.00672,1.34375c-0.01548,1.78177 -0.03061,3.43406 0.01172,5.16737c-4.36316,6.54279 -6.91188,14.38624 -6.91188,22.79607c0,9.47789 3.23721,18.2364 8.66055,25.22445c-4.20952,1.03865 -8.55105,1.74005 -12.99415,2.07383c-0.08056,0.00655 -0.16115,0.01386 -0.24187,0.02015c-1.9,0.13691 -3.80998,0.22844 -5.74453,0.22844c-1.93455,0 -3.84453,-0.09153 -5.74453,-0.22844c-0.08072,-0.0063 -0.16131,-0.01361 -0.24187,-0.02015c-40.86189,-3.06969 -73.1336,-37.2321 -73.1336,-78.87141c0,-43.65602 35.46398,-79.12 79.12,-79.12c43.65602,0 79.12,35.46398 79.12,79.12z"></path></g><g><g fill="#09f14a"><g id="Layer_2" font-family="Inter, sans-serif" font-weight="400" font-size="16" text-anchor="start"></g><g id="Layer_3" font-family="Inter, sans-serif" font-weight="400" font-size="16" text-anchor="start"></g><g id="Layer_1"><path d="M137.6,103.2c-18.92,0 -34.4,15.48 -34.4,34.4c0,18.92 15.48,34.4 34.4,34.4c18.92,0 34.4,-15.48 34.4,-34.4c0,-18.92 -15.48,-34.4 -34.4,-34.4z"></path></g></g><g fill="#000000" opacity="0"><g id="IOS" font-family="Inter, sans-serif" font-weight="400" font-size="16" text-anchor="start" visibility="hidden"></g><g id="IOS_copy"><path d="M137.6,96.32c-22.704,0 -41.28,18.576 -41.28,41.28c0,22.704 18.576,41.28 41.28,41.28c22.704,0 41.28,-18.576 41.28,-41.28c0,-22.704 -18.576,-41.28 -41.28,-41.28z"></path></g></g></g></g></svg>