<svg xmlns="http://www.w3.org/2000/svg" x="0px" y="0px"
width="24" height="24"
viewBox="0 0 172 172"
style=" fill:#000000;"><g fill="none" fill-rule="nonzero" stroke="none" stroke-width="1" stroke-linecap="butt" stroke-linejoin="miter" stroke-miterlimit="10" stroke-dasharray="" stroke-dashoffset="0" font-family="none" font-weight="none" font-size="none" text-anchor="none" style="mix-blend-mode: normal"><path d="M0,172v-172h172v172z" fill="none"></path><g fill="#0c7fcd"><path d="M43,14.33333c-7.88333,0 -14.33333,6.45 -14.33333,14.33333v114.66667c0,7.88333 6.45,14.33333 14.33333,14.33333h80.0651l-14.33333,-14.33333h-65.73177v-114.66667h50.16667v35.83333h35.83333v29.89844l14.33333,14.33333v-51.39844l-43,-43zM107.5,107.5v14.33333l36.88314,36.88314l14.33333,-14.33333l-36.88314,-36.88314zM163.78353,149.4502l-14.33333,14.33333l7.16667,7.16667c1.3975,1.3975 3.66956,1.3975 5.06706,0l9.26628,-9.26628c1.3975,-1.40467 1.3975,-3.66956 0,-5.06706z"></path></g></g></svg>