<svg xmlns="http://www.w3.org/2000/svg" x="0px" y="0px"
width="24" height="24"
viewBox="0 0 172 172"
style=" fill:#000000;"><g fill="none" fill-rule="nonzero" stroke="none" stroke-width="1" stroke-linecap="butt" stroke-linejoin="miter" stroke-miterlimit="10" stroke-dasharray="" stroke-dashoffset="0" font-family="none" font-weight="none" font-size="none" text-anchor="none" style="mix-blend-mode: normal"><path d="M0,172v-172h172v172z" fill="none"></path><g fill="#f1c40f"><path d="M41.28,6.88c-12.03312,0 -20.64,9.48064 -20.64,20.64v118.39781h0.01344c-0.00344,0.09632 -0.01344,0.18587 -0.01344,0.28219c0,10.40944 8.51056,18.92 18.92,18.92h111.8v-6.88h-111.8c-6.68736,0 -12.04,-5.35264 -12.04,-12.04c0,-6.68736 5.35264,-12.04 12.04,-12.04h111.8v-3.44v-3.44v-120.4zM71.9511,21.07672c0.56115,-0.04687 1.13477,0.04655 1.66625,0.28219l6.88,3.01c1.25216,0.54696 2.06265,1.78541 2.06265,3.15109v1.49156l8.36485,4.01109c1.19368,0.57104 1.95515,1.77294 1.95515,3.09734v3.20485l14.96937,5.61687c1.3416,0.50224 2.23063,1.7838 2.23063,3.21828v3.87v6.235v24.295h-41.28v-38.27v-16.34v-3.44c0,-1.16272 0.58523,-2.24594 1.55875,-2.88234c0.48504,-0.31992 1.0312,-0.50407 1.59235,-0.55094zM79.12,34.99125v37.24875c0,1.89888 1.54112,3.44 3.44,3.44c1.89888,0 3.44,-1.54112 3.44,-3.44v-30.53v-3.41985zM92.88,46.67515v25.56485c0,1.89888 1.54112,3.44 3.44,3.44c1.89888,0 3.44,-1.54112 3.44,-3.44v-22.98485zM63.75422,89.44h51.37156c1.01824,0 1.83422,0.77056 1.83422,1.72c0,0.94944 -0.81942,1.72 -1.83422,1.72c-2.02272,0 -3.66844,1.54112 -3.66844,3.44c0,1.89888 1.64228,3.44 3.66844,3.44h-51.37156c2.02272,0 3.66844,-1.54112 3.66844,-3.44c0,-1.89888 -1.64228,-3.44 -3.66844,-3.44c-1.0148,0 -1.83422,-0.77056 -1.83422,-1.72c0,-0.94944 0.81942,-1.72 1.83422,-1.72zM61.92,106.64h55.04c1.89888,0 3.44,1.54112 3.44,3.44v3.44c0,1.89888 -1.54112,3.44 -3.44,3.44h-55.04c-1.89888,0 -3.44,-1.54112 -3.44,-3.44v-3.44c0,-1.89888 1.54112,-3.44 3.44,-3.44z"></path></g></g></svg>