<svg xmlns="http://www.w3.org/2000/svg" x="0px" y="0px"
width="24" height="24"
viewBox="0 0 172 172"
style=" fill:#000000;"><g fill="none" fill-rule="nonzero" stroke="none" stroke-width="1" stroke-linecap="butt" stroke-linejoin="miter" stroke-miterlimit="10" stroke-dasharray="" stroke-dashoffset="0" font-family="none" font-weight="none" font-size="none" text-anchor="none" style="mix-blend-mode: normal"><path d="M0,172v-172h172v172z" fill="none"></path><g fill="#f1c40f"><path d="M45.86667,17.2c-9.50013,0 -17.2,7.69987 -17.2,17.2v103.2c0.00029,1.52596 0.60882,2.98887 1.69089,4.06484c2.02291,7.24685 7.65651,13.13516 15.50911,13.13516h91.73333c2.06765,0.02924 3.99087,-1.05709 5.03322,-2.843c1.04236,-1.78592 1.04236,-3.99474 0,-5.78066c-1.04236,-1.78592 -2.96558,-2.87225 -5.03322,-2.843h-91.73333c-3.23951,0 -5.73333,-2.49383 -5.73333,-5.73333c0,-3.23951 2.49383,-5.73333 5.73333,-5.73333h86c6.33533,0 11.46667,-5.13133 11.46667,-11.46667v-91.73333c0,-6.33533 -5.13133,-11.46667 -11.46667,-11.46667zM86,34.4c3.1648,0 5.73333,2.56853 5.73333,5.73333c0,3.1648 -2.56853,5.73333 -5.73333,5.73333c-3.1648,0 -5.73333,-2.56853 -5.73333,-5.73333c0,-3.1648 2.56853,-5.73333 5.73333,-5.73333zM86,57.33333c3.1648,0 5.73333,2.56853 5.73333,5.73333v32.02604l7.41302,-7.41302c2.24173,-2.24173 5.86556,-2.24173 8.10729,0c2.24173,2.24173 2.24173,5.86556 0,8.10729l-17.2,17.2c-0.52747,0.52747 -1.15939,0.95057 -1.85886,1.24297c-0.69947,0.28667 -1.44946,0.43672 -2.19479,0.43672c-0.74533,0 -1.49532,-0.15005 -2.19479,-0.43672c-0.69947,-0.2924 -1.33139,-0.7155 -1.85886,-1.24297l-17.2,-17.2c-2.24173,-2.24173 -2.24173,-5.86556 0,-8.10729c2.24173,-2.24173 5.86556,-2.24173 8.10729,0l7.41302,7.41302v-32.02604c0,-3.1648 2.56853,-5.73333 5.73333,-5.73333z"></path></g></g></svg>