<svg xmlns="http://www.w3.org/2000/svg" x="0px" y="0px"
width="24" height="24"
viewBox="0 0 172 172"
style=" fill:#000000;"><g fill="none" fill-rule="nonzero" stroke="none" stroke-width="1" stroke-linecap="butt" stroke-linejoin="miter" stroke-miterlimit="10" stroke-dasharray="" stroke-dashoffset="0" font-family="none" font-weight="none" font-size="none" text-anchor="none" style="mix-blend-mode: normal"><path d="M0,172v-172h172v172z" fill="none"></path><g fill="#1abc9c"><path d="M143.33333,35.83333v100.33333c0,11.87517 -9.62483,21.5 -21.5,21.5h-71.66667c-11.87517,0 -21.5,-9.62483 -21.5,-21.5v-100.33333c0,-11.87517 9.62483,-21.5 21.5,-21.5h71.66667c11.87517,0 21.5,9.62483 21.5,21.5z" opacity="0.35"></path><path d="M129,71.66667h-50.16667c-7.91917,0 -14.33333,6.41417 -14.33333,14.33333c0,7.91917 6.41417,14.33333 14.33333,14.33333h50.16667z"></path><path d="M118.81617,115.6055c0,5.5255 6.665,8.30617 10.59233,4.41467l27.89983,-27.63467c3.5475,-3.51883 3.5475,-9.25217 0,-12.771l-27.89983,-27.63467c-3.92733,-3.88433 -10.59233,-1.10367 -10.59233,4.41467z"></path></g></g></svg>