<svg xmlns="http://www.w3.org/2000/svg" x="0px" y="0px"
width="24" height="24"
viewBox="0 0 172 172"
style=" fill:#000000;"><g fill="none" fill-rule="nonzero" stroke="none" stroke-width="1" stroke-linecap="butt" stroke-linejoin="miter" stroke-miterlimit="10" stroke-dasharray="" stroke-dashoffset="0" font-family="none" font-weight="none" font-size="none" text-anchor="none" style="mix-blend-mode: normal"><path d="M0,172v-172h172v172z" fill="none"></path><g fill="#f1c40f"><path d="M86,7.16667c-23.82063,0 -43,19.17937 -43,43v7.16667c-7.88333,0 -14.33333,6.45 -14.33333,14.33333v71.66667c0,7.88333 6.45,14.33333 14.33333,14.33333h86c7.88333,0 14.33333,-6.45 14.33333,-14.33333v-71.66667c0,-7.88333 -6.45,-14.33333 -14.33333,-14.33333v-7.16667c0,-23.82063 -19.17936,-43 -43,-43zM86,21.5c16.3127,0 28.66667,12.35397 28.66667,28.66667v7.16667h-57.33333v-7.16667c0,-16.3127 12.35397,-28.66667 28.66667,-28.66667zM57.33333,100.33333c3.94167,0 7.16667,3.225 7.16667,7.16667c0,3.94167 -3.225,7.16667 -7.16667,7.16667c-3.94167,0 -7.16667,-3.225 -7.16667,-7.16667c0,-3.94167 3.225,-7.16667 7.16667,-7.16667zM86,100.33333c3.94167,0 7.16667,3.225 7.16667,7.16667c0,3.94167 -3.225,7.16667 -7.16667,7.16667c-3.94167,0 -7.16667,-3.225 -7.16667,-7.16667c0,-3.94167 3.225,-7.16667 7.16667,-7.16667zM114.66667,100.33333c3.94167,0 7.16667,3.225 7.16667,7.16667c0,3.94167 -3.225,7.16667 -7.16667,7.16667c-3.94167,0 -7.16667,-3.225 -7.16667,-7.16667c0,-3.94167 3.225,-7.16667 7.16667,-7.16667z"></path></g></g></svg>