<svg xmlns="http://www.w3.org/2000/svg" x="0px" y="0px"
width="24" height="24"
viewBox="0 0 172 172"
style=" fill:#000000;"><g fill="none" fill-rule="nonzero" stroke="none" stroke-width="1" stroke-linecap="butt" stroke-linejoin="miter" stroke-miterlimit="10" stroke-dasharray="" stroke-dashoffset="0" font-family="none" font-weight="none" font-size="none" text-anchor="none" style="mix-blend-mode: normal"><path d="M0,172v-172h172v172z" fill="none"></path><g fill="#1abc9c"><path d="M129,150.5h-86c-11.87517,0 -21.5,-9.62483 -21.5,-21.5v-57.33333c0,-11.87517 9.62483,-21.5 21.5,-21.5h86c11.87517,0 21.5,9.62483 21.5,21.5v57.33333c0,11.87517 -9.62483,21.5 -21.5,21.5z" opacity="0.35"></path><path d="M57.33333,50.16667c0,-15.83117 12.8355,-28.66667 28.66667,-28.66667c15.83117,0 28.66667,12.8355 28.66667,28.66667h14.33333c0,-23.75033 -19.24967,-43 -43,-43c-23.75033,0 -43,19.24967 -43,43z"></path><circle cx="12" cy="14" transform="scale(7.16667,7.16667)" r="1.5"></circle><circle cx="17" cy="14" transform="scale(7.16667,7.16667)" r="1.5"></circle><circle cx="7" cy="14" transform="scale(7.16667,7.16667)" r="1.5"></circle></g></g></svg>