<svg xmlns="http://www.w3.org/2000/svg" x="0px" y="0px"
width="24" height="24"
viewBox="0 0 172 172"
style=" fill:#000000;"><g fill="none" fill-rule="nonzero" stroke="none" stroke-width="1" stroke-linecap="butt" stroke-linejoin="miter" stroke-miterlimit="10" stroke-dasharray="" stroke-dashoffset="0" font-family="none" font-weight="none" font-size="none" text-anchor="none" style="mix-blend-mode: normal"><path d="M0,172v-172h172v172z" fill="none"></path><g fill="#1abc9c"><path d="M86,7.16667c-30.71633,0 -57.2975,19.19233 -67.381,47.14233l-9.933,-3.612c-3.096,-1.12517 -6.24217,2.6875 -5.01667,6.02717l8.97983,23.93667c1.0965,3.06733 4.32867,4.24267 7.138,2.6015l22.26683,-12.56317c3.08883,-1.77733 3.13183,-6.72233 0.03583,-7.8475l-9.9975,-3.64067c8.0625,-22.35283 29.326,-37.711 53.90767,-37.711c29.2185,0 53.707,21.85117 56.96783,50.83317c0.41567,3.66217 3.51167,6.364 7.10933,6.364c0.27233,0 0.5375,-0.01433 0.80983,-0.043c3.9345,-0.44433 6.76533,-3.99183 6.321,-7.91917c-4.07067,-36.24183 -34.68667,-63.56833 -71.208,-63.56833z" opacity="0.35"></path><circle cx="12" cy="10" transform="scale(7.16667,7.16667)" r="4" opacity="0.35"></circle><path d="M114.66667,114.66667h-57.33333c-11.87517,0 -21.5,9.62483 -21.5,21.5c0,11.87517 9.62483,21.5 21.5,21.5h57.33333c11.87517,0 21.5,-9.62483 21.5,-21.5c0,-11.87517 -9.62483,-21.5 -21.5,-21.5z"></path></g></g></svg>