<svg xmlns="http://www.w3.org/2000/svg" x="0px" y="0px"
width="24" height="24"
viewBox="0 0 172 172"
style=" fill:#000000;"><g fill="none" fill-rule="nonzero" stroke="none" stroke-width="1" stroke-linecap="butt" stroke-linejoin="miter" stroke-miterlimit="10" stroke-dasharray="" stroke-dashoffset="0" font-family="none" font-weight="none" font-size="none" text-anchor="none" style="mix-blend-mode: normal"><path d="M0,172v-172h172v172z" fill="none"></path><g fill="#f1c40f"><path d="M43,14.33333c-11.85367,0 -21.5,9.64633 -21.5,21.5c0,9.3282 6.01103,17.21533 14.33333,20.18424v59.96485c-8.3223,2.96891 -14.33333,10.85605 -14.33333,20.18424c0,11.85367 9.64633,21.5 21.5,21.5c11.85367,0 21.5,-9.64633 21.5,-21.5c0,-9.3282 -6.01103,-17.21533 -14.33333,-20.18424v-59.96485c8.3223,-2.96891 14.33333,-10.85604 14.33333,-20.18424c0,-11.85367 -9.64633,-21.5 -21.5,-21.5zM93.16667,14.33333l-21.5,21.5l21.5,21.5v-14.33333h7.16667c11.95747,0 21.5,9.54253 21.5,21.5v51.48242c-8.3223,2.96891 -14.33333,10.85605 -14.33333,20.18424c0,11.85367 9.64633,21.5 21.5,21.5c11.85367,0 21.5,-9.64633 21.5,-21.5c0,-9.3282 -6.01103,-17.21533 -14.33333,-20.18424v-51.48242c0,-19.70487 -16.12847,-35.83333 -35.83333,-35.83333h-7.16667z"></path></g></g></svg>