<svg xmlns="http://www.w3.org/2000/svg" x="0px" y="0px"
width="24" height="24"
viewBox="0 0 172 172"
style=" fill:#000000;"><g fill="none" fill-rule="nonzero" stroke="none" stroke-width="1" stroke-linecap="butt" stroke-linejoin="miter" stroke-miterlimit="10" stroke-dasharray="" stroke-dashoffset="0" font-family="none" font-weight="none" font-size="none" text-anchor="none" style="mix-blend-mode: normal"><path d="M0,172v-172h172v172z" fill="none"></path><g fill="#f1c40f"><path d="M43,14.33333c-7.88333,0 -14.33333,6.45 -14.33333,14.33333v114.66667c0,7.88333 6.45,14.33333 14.33333,14.33333h57.33333c3.956,0 7.16667,-3.21067 7.16667,-7.16667v-35.83333c0,-7.91917 6.41417,-14.33333 14.33333,-14.33333h14.33333c3.956,0 7.16667,-3.21067 7.16667,-7.16667v-64.5c0,-7.91917 -6.41417,-14.33333 -14.33333,-14.33333zM71.66667,35.83333c7.91917,0 14.33333,6.41417 14.33333,14.33333c0,7.91917 -6.41417,14.33333 -14.33333,14.33333c-7.91917,0 -14.33333,-6.41417 -14.33333,-14.33333c0,-7.91917 6.41417,-14.33333 14.33333,-14.33333zM71.66667,71.66667c7.17383,0 21.5,4.50067 21.5,13.4375v4.47917c0,1.978 -1.60533,3.58333 -3.58333,3.58333h-35.83333c-1.978,0 -3.58333,-1.60533 -3.58333,-3.58333v-4.47917c0,-8.93683 14.32617,-13.4375 21.5,-13.4375zM129,114.66667c-3.956,0 -7.16667,3.21067 -7.16667,7.16667c0,3.956 3.21067,7.16667 7.16667,7.16667h35.83333c3.956,0 7.16667,-3.21067 7.16667,-7.16667c0,-3.956 -3.21067,-7.16667 -7.16667,-7.16667zM129,136.16667c-3.956,0 -7.16667,3.21067 -7.16667,7.16667c0,3.956 3.21067,7.16667 7.16667,7.16667h35.83333c3.956,0 7.16667,-3.21067 7.16667,-7.16667c0,-3.956 -3.21067,-7.16667 -7.16667,-7.16667zM129,157.66667c-3.956,0 -7.16667,3.21067 -7.16667,7.16667c0,3.956 3.21067,7.16667 7.16667,7.16667h35.83333c3.956,0 7.16667,-3.21067 7.16667,-7.16667c0,-3.956 -3.21067,-7.16667 -7.16667,-7.16667z"></path></g></g></svg>